<svg xmlns="http://www.w3.org/2000/svg" viewBox="0 0 142.48 127.19" fill="#1fcc9a">
  <path d="M26.37 123.39L71.24 97.5l44.88 25.89V97.5L71.24 71.61 26.37 97.5v25.89z"/>
  <path d="M54.74 127.19l16.5-9.52 16.5 9.52v-9.52l-16.5-9.52-16.5 9.52v9.52zM44.88 0l-.02 51.81L0 77.73l22.43 12.94 44.85-25.91.02-51.81L44.88 0z"/>
  <path d="M27.4 22.68l-.01 19.04-16.49 9.53 8.24 4.76 16.49-9.53.01-19.04-8.24-4.76zM142.48 77.73L97.62 51.81 97.6 0 75.18 12.95l.02 51.81 44.85 25.91 22.43-12.94z"/>
  <path d="M131.58 51.25l-16.49-9.53-.01-19.04-8.24 4.76.01 19.04 16.49 9.53 8.24-4.76z"/>
</svg>