<svg xmlns="http://www.w3.org/2000/svg" viewBox="0 0 20 20"><path fill="none" d="M0 0h20v20H0z"/><g transform="matrix(.86667 0 0 .86667 39.53 -302.8)"><path fill-rule="evenodd" d="M-34.08 352.85a8.03 8.03 0 00-8.08 8.08c0 4.5 3.58 8.08 8.08 8.08s8.08-3.58 8.08-8.08a8.03 8.03 0 00-8.08-8.08zm0 1.15a6.94 6.94 0 016.92 6.92 6.94 6.94 0 01-6.92 6.92 6.94 6.94 0 01-6.92-6.92c0-3.8 3.12-6.92 6.92-6.92z" clip-rule="evenodd" opacity=".3"/><path fill-rule="evenodd" d="M-34.08 358.62a2.32 2.32 0 00-2.31 2.31 2.32 2.32 0 002.31 2.31 2.31 2.31 0 000-4.62z" clip-rule="evenodd"/></g></svg>