<svg xmlns="http://www.w3.org/2000/svg" viewBox="0 0 20 20"><path d="M15.5 2.99c-.3 0-.5.2-.5.5v1c0 .7 1 .7 1 0v-1c0-.3-.2-.5-.5-.5zm-6 0c-.1 0-.2.1-.3.1l-5 5c-.1.1-.1.2-.1.3v2c0 .7 1 .7 1 0v-1.4h4.5c.3 0 .5-.2.5-.5v-4.5h.5c.7 0 .7-1 0-1H9.5zm3 0c-.7 0-.7 1 0 1h1c.7 0 .7-1 0-1h-1zm3 3c-.3 0-.5.2-.5.5v1c0 .7 1 .7 1 0v-1c0-.3-.2-.5-.5-.5zm0 3c-.3 0-.5.2-.5.5v1c0 .7 1 .7 1 0v-1c0-.3-.2-.5-.5-.5zm-11 3c-.3 0-.5.2-.5.5v1c0 .7 1 .7 1 0v-1c0-.3-.2-.5-.5-.5zm11 0c-.3 0-.5.2-.5.5v1c0 .7 1 .7 1 0v-1c0-.3-.2-.5-.5-.5zm-11 3c-.3 0-.5.2-.5.5v1c0 .7 1 .7 1 0v-1c0-.3-.2-.5-.5-.5zm11 0c-.3 0-.5.2-.5.5v1c0 .7 1 .7 1 0v-1c0-.3-.2-.5-.5-.5zm-9 1c-.7 0-.7 1 0 1h1c.7 0 .7-1 0-1h-1zm3 0c-.7 0-.7 1 0 1h1c.7 0 .7-1 0-1h-1zm3 0c-.7 0-.7 1 0 1h1c.7 0 .7-1 0-1h-1z" opacity=".99"/></svg>