<svg xmlns="http://www.w3.org/2000/svg" viewBox="0 0 20 20"><path fill="none" d="M0 0h20v20H0z"/><path d="M13.7 3c-.8 0-1.6.3-2.2.9L9.8 5.4C9.3 6 9 6.8 9 7.6c0 .3.2.5.5.5s.5-.2.5-.5c0-.5.2-1 .6-1.4l1.5-1.5c.4-.4 1-.6 1.4-.6s1.1.3 1.6.8c.6.6.8 1.1.8 1.7 0 .5-.2 1-.6 1.4l-1.5 1.5a2 2 0 01-1.4.6c-.3 0-.5.2-.5.5s.2.5.5.5c.8 0 1.5-.3 2.1-.9L16 8.7c.6-.6 1-1.4 1-2.2 0-.8-.5-1.6-1.2-2.3A3 3 0 0013.6 3zm-1.1 4l-.3.2-5 5c-.2.2-.2.5 0 .7s.5.2.7 0l5-5v-.7l-.4-.2zm-5 2c-.7 0-1.5.3-2.1.9L4 11.4c-.6.6-1 1.4-1 2.2 0 .8.5 1.6 1.2 2.3.7.7 1.5 1.1 2.3 1.1s1.6-.3 2.2-.9l1.5-1.5c.6-.6.9-1.3.9-2.1 0-.3-.2-.5-.5-.5s-.5.2-.5.5c0 .5-.2 1-.6 1.4L8 15.4c-.4.4-1 .6-1.4.6s-1.1-.3-1.7-.8c-.6-.6-.8-1.1-.8-1.6s.2-1 .6-1.4l1.5-1.5a2 2 0 011.4-.6c.3 0 .5-.2.5-.5S8 9 7.7 9z"/></svg>