<svg xmlns="http://www.w3.org/2000/svg" viewBox="0 0 20 20"><path d="M3.51 3c-.3 0-.5.2-.5.5v3c0 .3.2.5.5.5s.5-.2.5-.5v-3c0-.3-.2-.5-.5-.5zm0 5c-.3 0-.5.2-.5.5v3c0 .3.2.5.5.5s.5-.2.5-.5v-3c0-.3-.2-.5-.5-.5zm0 5c-.3 0-.5.2-.5.5v3c0 .3.2.5.5.5s.5-.2.5-.5v-3c0-.3-.2-.5-.5-.5z"/><path d="M6.51 3c-.3 0-.5.2-.5.5V4h-1v1h5v-.5c0-.2-.2-.5-.5-.5h-1.5v-.5c0-.3-.2-.5-.5-.5h-1zm3.5 2v1h-5v9h4v-4.3c-.1-.9.6-1.7 1.5-1.7h1.5V5.5c0-.3-.2-.5-.5-.5h-1.5z" opacity=".5"/><path d="M10.536 10h4c.3 0 .5.2.5.5s-.2.5-.5.5h-2.8l5.1 5.1c.2.2.2.5 0 .7s-.5.2-.7 0l-5.1-5.1v2.8c0 .3-.2.5-.5.5s-.5-.2-.5-.5v-3.9c0-.3.1-.6.5-.6-.1 0 0 0 0 0z"/></svg>