<svg xmlns="http://www.w3.org/2000/svg" viewBox="0 0 20 20"><g transform="translate(171)"><path d="M-159.52 3.02c-.3 0-.5.2-.5.5v.5h-1.5c-.3 0-.5.3-.5.5v.5h6v-.5c0-.3-.1-.5-.5-.5h-1.5v-.5c0-.3-.2-.5-.5-.5h-1zm3.5 2v1h-6v-1h-1.5c-.3 0-.5.2-.5.5v3.5h2.5c.8 0 1.5.6 1.5 1.5v4.5h5.5c.3 0 .5-.2.5-.5v-9c0-.3-.2-.5-.5-.5h-1.5z" opacity=".5"/><path d="M-161.52 10.02h-4c-.3 0-.5.2-.5.5s.2.5.5.5h2.8l-5.1 5.1c-.2.2-.2.5 0 .7s.5.2.7 0l5.1-5.1v2.8c0 .3.2.5.5.5s.5-.2.5-.5v-3.9c0-.3-.11-.6-.5-.6.1 0 0 0 0 0z"/></g></svg>