<svg xmlns="http://www.w3.org/2000/svg" viewBox="0 0 20 20"><path d="M15.5 10.6V7.5h.5c.3 0 .5-.2.5-.5V4c0-.3-.2-.5-.5-.5h-3c-.3 0-.5.2-.5.5v.5h-5V4c0-.3-.2-.5-.5-.5H4c-.3 0-.5.2-.5.5v3c0 .3.2.5.5.5h.5v5H4c-.3 0-.5.2-.5.5v3c0 .3.2.5.5.5h3c.3 0 .5-.2.5-.5v-.5h5v.5c0 .3.2.5.5.5h3c.3 0 .5-.2.5-.5v-3c0-.3-.2-.5-.5-.5h-.5v-1.9zm-11-6.1h2v2h-2v-2zm2 11h-2v-2h2v2zm6-2.5v1.5h-5V13c0-.3-.2-.5-.5-.5H5.5v-5H7c.3 0 .5-.2.5-.5V5.5h5V7c0 .3.2.5.5.5h1.5v5H13c-.3 0-.5.2-.5.5zm3 2.5h-2v-.4V13.5h2v2zm-.4-9H13.5v-2h2v2h-.4z" /></svg>