<svg xmlns="http://www.w3.org/2000/svg" viewBox="0 0 20 20"><path d="M4.08 8.57c-.8 1-1.2 2.2-1 3.5.2 1.8 1.6 3.3 3.3 3.8 1.4.4 2.9 0 4-.9-.3.1-.6.1-.9.1-.4 0-.8 0-1.1-.1-.6.1-1.2.2-1.8 0-1.4-.4-2.4-1.5-2.6-2.9-.1-.5 0-.9.1-1.3-.1-.4-.1-.7-.1-1.1 0-.5 0-.8.1-1.1z" opacity=".8"/><path d="M8.08 5.27c-1.8.6-3.1 2.3-3.1 4.3 0 2.5 2 4.5 4.5 4.5.5 0 1-.1 1.4-.2-.6-.2-1.1-.4-1.6-.8-1.9-.1-3.3-1.6-3.3-3.5 0-1.1.5-2 1.3-2.7.2-.6.4-1.2.8-1.6z"/><path d="M12.48 3.97c-2.5 0-4.5 2-4.5 4.5s2 4.5 4.5 4.5 4.5-2 4.5-4.5-2-4.5-4.5-4.5zm0 2c1.4 0 2.5 1.1 2.5 2.5s-1.1 2.5-2.5 2.5-2.5-1.1-2.5-2.5 1.1-2.5 2.5-2.5z"/></svg>