<svg xmlns="http://www.w3.org/2000/svg" viewBox="0 0 20 20"><g id="shape-combine-intersect_1_" class="st1"><path id="path24344-9_1_" d="M7.5 7c-.3 0-.5.2-.5.5v5c0 .3.2.5.5.5h5c.3 0 .5-.2.5-.5v-5c0-.3-.2-.5-.5-.5h-5z"/><g id="g24392-5_1_" transform="translate(-166.996 -1801.003)" class="st1"><path id="rect24376-2_1_" d="M174 1804v2h1v-1h1v-1h-2zm4 0v1h2v-1h-2zm4 0v1h1v1h1v-2h-2zm1 4v2h1v-2h-1zm-13 0v2h1v-1h1v-1h-2zm13 4v1h-1v1h2v-2h-1zm-13 0v2h1v-2h-1zm0 4v2h2v-1h-1v-1h-1zm9 0v1h-1v1h2v-2h-1zm-5 1v1h2v-1h-2z"/></g></g></svg>