<svg xmlns="http://www.w3.org/2000/svg" viewBox="0 0 20 20"><path fill-rule="evenodd" d="M11.95 3c-2.5 0-4.5 1.8-4.9 4.1.5-.1 1-.1 1.5-.1.7.1.6 1.1-.1 1-.5-.1-1 0-1.4.1.1 2.7 2.2 4.8 4.9 4.9.1-.5.2-1 .1-1.5 0-.3.2-.6.5-.6s.5.2.5.4c.1.5 0 1-.1 1.5 2.3-.4 4.1-2.5 4.1-4.9-.1-2.7-2.3-4.9-5.1-4.9zm-1.6 4.8c.1 0 .2 0 .3.1.5.4 1 .8 1.4 1.4s-.5 1.1-.8.6c-.3-.4-.7-.8-1.1-1.1-.5-.3-.3-1 .2-1z" clip-rule="evenodd"/><path d="M5.45 7.8c-.1 0-.2 0-.3.1C3.45 9 2.65 11 3.05 13s1.9 3.5 3.9 3.9 4-.4 5.1-2c.2-.2.1-.5-.1-.7-.2-.2-.5-.1-.7.1-.9 1.3-2.5 2-4.1 1.6s-2.8-1.6-3.1-3.2c-.3-1.6.4-3.2 1.7-4.1.2-.2.3-.5.1-.7-.1-.1-.2-.1-.4-.1z"/></svg>