<svg xmlns="http://www.w3.org/2000/svg" viewBox="0 0 20 20"><path d="M6.97 3c-.7 0-.7 1 0 1h1.5v1.1c-2.8.5-5 2.9-5 5.9 0 3.3 2.7 6 6 6s6-2.7 6-6c0-1.2-.4-2.4-1-3.3 0 0 .1 0 .1-.1l1.8-1.8c.2-.2.2-.5 0-.7-.1-.1-.2-.2-.4-.2-.1 0-.3.1-.3.2l-1.8 1.8c-1.1-1.2-2.7-1.9-4.4-1.9V4h1.5c.7 0 .7-1 0-1h-4zm2.5 3c2.8 0 5 2.2 5 5s-2.2 5-5 5-5-2.2-5-5 2.2-5 5-5z" fill-rule="evenodd" clip-rule="evenodd"/><path d="M8.97 7c-.3 0-.5.2-.5.5v3.9c0 .1 0 .3.1.4.1.1.3.1.4.1h2.9c.3 0 .5-.2.5-.5s-.2-.5-.5-.5h-2.4V7.4c0-.2-.2-.4-.5-.4z"/></svg>