<svg xmlns="http://www.w3.org/2000/svg" viewBox="0 0 20 20"><path d="M13.7 3c-.8 0-1.6.3-2.2.9L10 5.2c-.2.2-.2.5 0 .7s.5.2.7 0l1.3-1.3c.4-.4 1-.6 1.4-.6s1.1.3 1.6.8c.6.6.8 1 .8 1.7s-.2 1-.6 1.4L14 9.2c-.2.2-.2.5 0 .7s.5.2.7 0L16 8.6c.6-.6 1-1.4 1-2.2 0-.8-.5-1.6-1.2-2.3-.6-.7-1.4-1-2.2-1.1zm-8.2 7l-.3.1L4 11.4c-.6.6-.9 1.4-.9 2.2 0 .8.4 1.6 1.1 2.3.7.7 1.5 1.1 2.3 1.1s1.6-.2 2.2-.8L9.8 15c.2-.2.2-.5 0-.7s-.5-.2-.7 0l-1.3 1.3c-.4.4-.9.6-1.4.6s-1-.3-1.7-.8c-.6-.6-.8-1.1-.8-1.6s.2-1 .6-1.4L5.8 11c.2-.2.2-.5 0-.7 0-.5-.1-.5-.3-.5z" opacity=".6"/></svg>