<svg version="1.1" xmlns="http://www.w3.org/2000/svg" x="0" y="0" xml:space="preserve" overflow="visible" viewBox="0 0 20 20"><defs/><style type="text/css">.st0{fill:none}.st1,.st2,.st3{enable-background:new}.st2,.st3{opacity:.99}.st3{opacity:.6;fill-rule:evenodd;clip-rule:evenodd}</style><path class="st0" d="M0 0h20v20H0z"/><g id="visual-editor_1_" class="st1"><path id="path15332-4_1_" class="st2" d="M8 7c-.7 0-1.3.4-1.6.8s-.5 1-.7 1.5-.4.9-.7 1.2-.5.4-1 .4H3v1h1c.8 0 1.4-.3 1.7-.8s.6-1 .8-1.5c.2-.5.4-1 .6-1.3s.4-.4.8-.4.6.2.8.6.5 1 .7 1.6.4 1.3.8 1.8.9 1 1.7 1c.7 0 1.2-.3 1.6-.6s.6-.8.8-1.1.4-.7.6-.9.5-.3 1-.3h1V9h-1c-.7 0-1.3.2-1.7.6s-.6.8-.8 1.2-.4.7-.6.9-.4.3-.8.3-.6-.2-.8-.5-.5-1-.7-1.6-.4-1.3-.8-1.8S8.7 7 8 7z"/><path id="path12638-3_1_" class="st3" d="M16.5 3h-13c-.3 0-.5.2-.5.5V10h1V4h12v4h1V3.5c0-.3-.2-.5-.5-.5zm-.5 8v5H4v-3H3v3.5c0 .3.2.5.5.5h13c.3 0 .5-.2.5-.5V11h-1z"/></g></svg>